<?xml version="1.0" encoding="UTF-8" standalone="no"?>
<!-- Created with Inkscape (http://www.inkscape.org/) -->

<svg
   xmlns:dc="http://purl.org/dc/elements/1.1/"
   xmlns:cc="http://creativecommons.org/ns#"
   xmlns:rdf="http://www.w3.org/1999/02/22-rdf-syntax-ns#"
   xmlns:svg="http://www.w3.org/2000/svg"
   xmlns="http://www.w3.org/2000/svg"
   xmlns:sodipodi="http://sodipodi.sourceforge.net/DTD/sodipodi-0.dtd"
   xmlns:inkscape="http://www.inkscape.org/namespaces/inkscape"
   width="1024"
   height="1024"
   id="svg2"
   version="1.1"
   inkscape:version="0.48.5 r10040"
   sodipodi:docname="food1.svg">
  <defs
     id="defs4" />
  <sodipodi:namedview
     id="base"
     pagecolor="#ffffff"
     bordercolor="#666666"
     borderopacity="1.0"
     inkscape:pageopacity="0"
     inkscape:pageshadow="2"
     inkscape:zoom="0.35"
     inkscape:cx="500.3091"
     inkscape:cy="615.76471"
     inkscape:document-units="px"
     inkscape:current-layer="layer1"
     showgrid="false"
     inkscape:window-width="1276"
     inkscape:window-height="776"
     inkscape:window-x="0"
     inkscape:window-y="22"
     inkscape:window-maximized="0" />
  <metadata
     id="metadata7">
    <rdf:RDF>
      <cc:Work
         rdf:about="">
        <dc:format>image/svg+xml</dc:format>
        <dc:type
           rdf:resource="http://purl.org/dc/dcmitype/StillImage" />
        <dc:title />
      </cc:Work>
    </rdf:RDF>
  </metadata>
  <g
     inkscape:label="Layer 1"
     inkscape:groupmode="layer"
     id="layer1"
     transform="translate(0,-28.362168)">
    <path
       style="fill:#2b1100;fill-opacity:1;stroke:none"
       d="M 602.84375 55.4375 L 537.15625 181.15625 L 431.4375 98.28125 L 482.84375 181.15625 L 477.15625 301.15625 L 337.15625 106.84375 L 382.84375 212.5625 L 422.84375 292.5625 L 414.28125 492.5625 L 331.4375 229.71875 L 305.71875 81.15625 L 294.28125 249.71875 L 140 161.15625 L 274.28125 281.15625 L 382.84375 495.4375 L 240 358.28125 L 94.28125 192.5625 L 197.15625 361.15625 L 376.71875 551.25 L 375.8125 551.25 C 397.36078 598.76393 410.125 657.87544 410.125 721.96875 C 410.125 837.83792 368.35508 937.48333 308.5 981.59375 L 573.5 981.59375 C 558.69804 931.69113 549.53125 862.76271 549.53125 786.625 C 549.53125 693.94777 563.07261 611.93835 583.875 561.9375 L 583.875 560.78125 L 894.28125 444 L 957.15625 218.28125 L 900 346.84375 L 811.4375 344 L 820 164 L 888.5625 55.4375 L 768.5625 135.4375 L 782.84375 344 L 577.15625 489.71875 L 708.5625 341.15625 L 685.71875 101.15625 L 634.28125 312.5625 L 500 452.5625 L 500 346.84375 L 551.4375 278.28125 L 602.84375 55.4375 z "
       transform="translate(0,28.362168)"
       id="rect3031" />
    <path
       transform="matrix(1.129167,0,0,1,-52.353304,9.5218671)"
       sodipodi:type="arc"
       style="fill:#00ff00;fill-opacity:1;stroke:none"
       id="path3015"
       sodipodi:cx="666.70068"
       sodipodi:cy="513.87299"
       sodipodi:rx="175.76654"
       sodipodi:ry="162.63457"
       d="m 842.46722,513.87299 a 175.76654,162.63457 0 1 1 -351.53308,0 175.76654,162.63457 0 1 1 351.53308,0 z" />
    <path
       transform="matrix(1.129167,0,0,1,-52.353304,9.5218671)"
       sodipodi:type="arc"
       style="fill:#00ff00;fill-opacity:1;stroke:none"
       id="path3013"
       sodipodi:cx="434.3656"
       sodipodi:cy="291.6394"
       sodipodi:rx="246.47722"
       sodipodi:ry="259.60922"
       d="m 680.84282,291.6394 a 246.47722,259.60922 0 1 1 -492.95444,0 246.47722,259.60922 0 1 1 492.95444,0 z" />
    <path
       transform="matrix(1.3467383,0,0,1,-186.41923,9.5218671)"
       sodipodi:type="arc"
       style="fill:#00ff00;fill-opacity:1;stroke:none"
       id="path3017"
       sodipodi:cx="747.51288"
       sodipodi:cy="299.72061"
       sodipodi:rx="131.31984"
       sodipodi:ry="138.3909"
       d="m 878.83272,299.72061 a 131.31984,138.3909 0 1 1 -262.63968,0 131.31984,138.3909 0 1 1 262.63968,0 z" />
    <path
       transform="matrix(1.129167,0,0,1,4.7895539,-19.049562)"
       sodipodi:type="arc"
       style="fill:#00ff00;fill-opacity:1;stroke:none"
       id="path3019"
       sodipodi:cx="673.77173"
       sodipodi:cy="164.36017"
       sodipodi:rx="134.3503"
       sodipodi:ry="93.944191"
       d="m 808.12202,164.36017 a 134.3503,93.944191 0 1 1 -268.70059,0 134.3503,93.944191 0 1 1 268.70059,0 z" />
    <path
       transform="matrix(1.129167,0,0,1,-52.353304,9.5218671)"
       sodipodi:type="arc"
       style="fill:#00ff00;fill-opacity:1;stroke:none"
       id="path3021"
       sodipodi:cx="247.48738"
       sodipodi:cy="276.48709"
       sodipodi:rx="160.61426"
       sodipodi:ry="135.36044"
       d="m 408.10164,276.48709 a 160.61426,135.36044 0 1 1 -321.228517,0 160.61426,135.36044 0 1 1 321.228517,0 z" />
    <path
       transform="matrix(1.129167,0,0,1,-52.353304,9.5218671)"
       sodipodi:type="arc"
       style="fill:#00ff00;fill-opacity:1;stroke:none"
       id="path3023"
       sodipodi:cx="301.02545"
       sodipodi:cy="492.65976"
       sodipodi:rx="193.9493"
       sodipodi:ry="115.15739"
       d="m 494.97475,492.65976 a 193.9493,115.15739 0 1 1 -387.89859,0 193.9493,115.15739 0 1 1 387.89859,0 z" />
    <path
       transform="matrix(1.129167,0,0,1,-52.353304,9.5218671)"
       sodipodi:type="arc"
       style="fill:#00ff00;fill-opacity:1;stroke:none"
       id="path3025"
       sodipodi:cx="454.56866"
       sodipodi:cy="512.86279"
       sodipodi:rx="183.84776"
       sodipodi:ry="139.40105"
       d="m 638.41643,512.86279 a 183.84776,139.40105 0 1 1 -367.69553,0 183.84776,139.40105 0 1 1 367.69553,0 z" />
    <path
       transform="matrix(1.129167,0,0,1,-52.353304,9.5218671)"
       sodipodi:type="arc"
       style="fill:#00ff00;fill-opacity:1;stroke:none"
       id="path3027"
       sodipodi:cx="803.07129"
       sodipodi:cy="414.87802"
       sodipodi:rx="116.16754"
       sodipodi:ry="144.45181"
       d="m 919.23883,414.87802 a 116.16754,144.45181 0 1 1 -232.33508,0 116.16754,144.45181 0 1 1 232.33508,0 z" />
    <path
       transform="matrix(1.129167,0,0,1,-52.353304,9.5218671)"
       sodipodi:type="arc"
       style="fill:#00ff00;fill-opacity:1;stroke:none"
       id="path3029"
       sodipodi:cx="160.61426"
       sodipodi:cy="364.37039"
       sodipodi:rx="104.04572"
       sodipodi:ry="89.90358"
       d="m 264.65998,364.37039 a 104.04572,89.90358 0 1 1 -208.091445,0 104.04572,89.90358 0 1 1 208.091445,0 z" />
  </g>
</svg>
