<?xml version="1.0" encoding="UTF-8" standalone="no"?>
<!-- Created with Inkscape (http://www.inkscape.org/) -->

<svg
   xmlns:dc="http://purl.org/dc/elements/1.1/"
   xmlns:cc="http://creativecommons.org/ns#"
   xmlns:rdf="http://www.w3.org/1999/02/22-rdf-syntax-ns#"
   xmlns:svg="http://www.w3.org/2000/svg"
   xmlns="http://www.w3.org/2000/svg"
   xmlns:sodipodi="http://sodipodi.sourceforge.net/DTD/sodipodi-0.dtd"
   xmlns:inkscape="http://www.inkscape.org/namespaces/inkscape"
   width="1024"
   height="1024"
   id="svg2"
   version="1.1"
   inkscape:version="0.48.5 r10040"
   sodipodi:docname="food3.svg">
  <defs
     id="defs4" />
  <sodipodi:namedview
     id="base"
     pagecolor="#ffffff"
     bordercolor="#666666"
     borderopacity="1.0"
     inkscape:pageopacity="0"
     inkscape:pageshadow="2"
     inkscape:zoom="0.35"
     inkscape:cx="500.3091"
     inkscape:cy="615.76471"
     inkscape:document-units="px"
     inkscape:current-layer="layer1"
     showgrid="false"
     inkscape:window-width="1276"
     inkscape:window-height="776"
     inkscape:window-x="0"
     inkscape:window-y="22"
     inkscape:window-maximized="0" />
  <metadata
     id="metadata7">
    <rdf:RDF>
      <cc:Work
         rdf:about="">
        <dc:format>image/svg+xml</dc:format>
        <dc:type
           rdf:resource="http://purl.org/dc/dcmitype/StillImage" />
        <dc:title></dc:title>
      </cc:Work>
    </rdf:RDF>
  </metadata>
  <g
     inkscape:label="Layer 1"
     inkscape:groupmode="layer"
     id="layer1"
     transform="translate(0,-28.362168)">
    <path
       style="fill:#2b1100;fill-opacity:1;stroke:none"
       d="M 602.84375 55.4375 L 537.15625 181.15625 L 431.4375 98.28125 L 482.84375 181.15625 L 477.15625 301.15625 L 337.15625 106.84375 L 382.84375 212.5625 L 422.84375 292.5625 L 414.28125 492.5625 L 331.4375 229.71875 L 305.71875 81.15625 L 294.28125 249.71875 L 140 161.15625 L 274.28125 281.15625 L 382.84375 495.4375 L 240 358.28125 L 94.28125 192.5625 L 197.15625 361.15625 L 376.71875 551.25 L 375.8125 551.25 C 397.36078 598.76393 410.125 657.87544 410.125 721.96875 C 410.125 837.83792 368.35508 937.48333 308.5 981.59375 L 573.5 981.59375 C 558.69804 931.69113 549.53125 862.76271 549.53125 786.625 C 549.53125 693.94777 563.07261 611.93835 583.875 561.9375 L 583.875 560.78125 L 894.28125 444 L 957.15625 218.28125 L 900 346.84375 L 811.4375 344 L 820 164 L 888.5625 55.4375 L 768.5625 135.4375 L 782.84375 344 L 577.15625 489.71875 L 708.5625 341.15625 L 685.71875 101.15625 L 634.28125 312.5625 L 500 452.5625 L 500 346.84375 L 551.4375 278.28125 L 602.84375 55.4375 z "
       transform="translate(0,28.362168)"
       id="rect3031" />
  </g>
</svg>
